<?xml version="1.0" encoding="utf-8"?>
<!-- Generator: Adobe Illustrator 18.1.0, SVG Export Plug-In . SVG Version: 6.00 Build 0)  -->
<svg version="1.1" id="Layer_1" xmlns="http://www.w3.org/2000/svg" xmlns:xlink="http://www.w3.org/1999/xlink" x="0px" y="0px"
	 viewBox="0 0 88 19" enable-background="new 0 0 88 19" xml:space="preserve">
<g>
	<g>
		<path fill="#F36D33" d="M7.2,4.6h5.2l-0.8,3.1c-0.1,0.4-0.4,0.8-0.7,1C10.6,9,10.2,9.2,9.7,9.2H7.3c-0.6,0-1,0.2-1.5,0.5
			C5.4,10,5.1,10.4,4.9,11c-0.1,0.4-0.1,0.8,0,1.2c0.1,0.4,0.2,0.7,0.5,1c0.2,0.3,0.5,0.5,0.8,0.7C6.5,14,6.9,14,7.3,14h1.5
			c0.3,0,0.5,0.1,0.7,0.3c0.2,0.2,0.2,0.5,0.2,0.7l-0.9,3.4H7.1c-1.1,0-2.1-0.2-3.1-0.7c-0.9-0.5-1.7-1.1-2.3-1.9
			c-0.6-0.8-1-1.7-1.3-2.7c-0.2-1-0.2-2.1,0.1-3.1l0.1-0.3c0.2-0.7,0.5-1.4,0.9-2C1.9,7,2.4,6.5,3,6C3.6,5.6,4.2,5.3,5,5
			C5.7,4.8,6.4,4.6,7.2,4.6z"/>
		<path fill="#F36D33" d="M9.8,18.5l4.6-17c0.1-0.4,0.4-0.8,0.7-1c0.3-0.3,0.7-0.4,1.2-0.4h4.9c1.1,0,2.1,0.2,3.1,0.7
			c0.9,0.5,1.7,1.1,2.3,1.9c0.6,0.8,1,1.7,1.3,2.7c0.2,1,0.2,2.1-0.1,3.1L27.6,9c-0.2,0.7-0.5,1.4-0.9,2c-0.4,0.6-0.9,1.2-1.5,1.6
			c-0.6,0.4-1.2,0.8-1.9,1C22.6,13.9,21.8,14,21,14h-4.2l0.8-3.1c0.1-0.4,0.4-0.8,0.7-1c0.3-0.3,0.7-0.4,1.2-0.4h1.3
			c0.6,0,1.1-0.2,1.5-0.5c0.4-0.3,0.7-0.8,0.9-1.3c0.1-0.4,0.1-0.8,0-1.1c-0.1-0.4-0.2-0.7-0.5-1c-0.2-0.3-0.5-0.5-0.8-0.7
			c-0.3-0.2-0.7-0.3-1.1-0.3h-2.6l-3.4,12.5c-0.1,0.4-0.4,0.8-0.7,1c-0.3,0.3-0.7,0.4-1.2,0.4H9.8z"/>
		<path fill="#F36D33" d="M38.8,9.5l0.1-0.3c0-0.1,0-0.2-0.1-0.3c-0.1-0.1-0.2-0.1-0.3-0.1H31c-0.3,0-0.6-0.1-0.9-0.2
			c-0.3-0.1-0.5-0.3-0.6-0.5c-0.2-0.2-0.3-0.5-0.3-0.8C29,7,29,6.7,29.1,6.3l0.5-1.8h10.2c0.6,0,1.2,0.1,1.7,0.4
			c0.5,0.3,1,0.6,1.3,1.1c0.3,0.4,0.6,1,0.7,1.5c0.1,0.6,0.1,1.2,0,1.8l-1.8,6.8c-0.2,0.7-0.6,1.3-1.1,1.7c-0.6,0.4-1.2,0.6-1.9,0.6
			l-7.5,0c-0.7,0-1.3-0.1-1.8-0.4c-0.6-0.3-1-0.7-1.4-1.1c-0.4-0.5-0.6-1-0.7-1.6c-0.1-0.6-0.1-1.2,0-1.9l0.1-0.3
			c0.1-0.4,0.3-0.8,0.5-1.2c0.3-0.4,0.6-0.7,0.9-0.9c0.3-0.3,0.7-0.5,1.1-0.6c0.4-0.1,0.9-0.2,1.3-0.2h6.3L37,11.9
			c-0.1,0.4-0.4,0.8-0.7,1c-0.3,0.3-0.7,0.4-1.2,0.4h-2.8c-0.3,0-0.4,0.1-0.5,0.4c0,0.2,0,0.3,0.1,0.4c0.1,0.1,0.2,0.2,0.4,0.2h4.6
			c0.2,0,0.3,0,0.4-0.1c0.1-0.1,0.2-0.2,0.2-0.4l0-0.2L38.8,9.5z"/>
		<path fill="#F36D33" d="M52.3,4.6c1.1,0,2.2,0.2,3.1,0.7s1.7,1.1,2.3,1.9c0.6,0.8,1,1.7,1.3,2.7c0.2,1,0.2,2.1-0.1,3.2l-1.2,4.3
			c-0.1,0.3-0.2,0.6-0.5,0.7c-0.3,0.2-0.5,0.3-0.8,0.3h-2.5c-0.3,0-0.5-0.1-0.7-0.3C53,18,52.9,17.7,53,17.5l1.4-5.2
			c0.1-0.4,0.1-0.8,0-1.1c-0.1-0.4-0.2-0.7-0.5-1c-0.2-0.3-0.5-0.5-0.8-0.7c-0.3-0.2-0.7-0.3-1.1-0.3h-2.6l-2.3,8.4
			c-0.1,0.3-0.2,0.6-0.5,0.7c-0.3,0.2-0.5,0.3-0.9,0.3h-2.5c-0.3,0-0.5-0.1-0.7-0.3c-0.2-0.2-0.2-0.5-0.2-0.7l3.4-12.8H52.3z"/>
		<path fill="#F36D33" d="M66,9c-0.2,0.1-0.3,0.3-0.4,0.6l-1,3.9c-0.1,0.2,0,0.4,0.1,0.6c0.1,0.2,0.3,0.3,0.6,0.3h9.6l-0.7,2.7
			c-0.1,0.4-0.4,0.8-0.7,1c-0.3,0.3-0.7,0.4-1.2,0.4h-8.7c-0.6,0-1.2-0.1-1.7-0.4c-0.5-0.3-1-0.6-1.3-1.1c-0.3-0.5-0.6-1-0.7-1.5
			c-0.1-0.6-0.1-1.2,0.1-1.8l1.4-5.2c0.2-0.6,0.4-1.1,0.7-1.6c0.3-0.5,0.7-0.9,1.1-1.2c0.4-0.3,0.9-0.6,1.5-0.8
			c0.5-0.2,1.1-0.3,1.7-0.3h6.2c0.6,0,1.2,0.1,1.7,0.4c0.5,0.3,1,0.6,1.3,1.1c0.3,0.4,0.6,1,0.7,1.5c0.1,0.6,0.1,1.2,0,1.8L75.7,11
			c-0.2,0.7-0.6,1.2-1.1,1.7c-0.6,0.4-1.2,0.6-1.9,0.6h-7l0.5-1.7c0.1-0.4,0.3-0.8,0.7-1c0.3-0.3,0.7-0.4,1.2-0.4h2.8
			c0.3,0,0.4-0.1,0.5-0.4l0.1-0.3c0-0.2,0-0.3-0.1-0.5c-0.1-0.1-0.2-0.2-0.4-0.2h-4.3C66.3,8.8,66.1,8.9,66,9z"/>
		<path fill="#F36D33" d="M74.8,18.5l4.7-17.4c0.1-0.3,0.2-0.6,0.5-0.7c0.3-0.2,0.5-0.3,0.9-0.3h2.5c0.3,0,0.5,0.1,0.7,0.3
			c0.2,0.2,0.2,0.5,0.2,0.7L80.7,14c-0.2,0.7-0.4,1.3-0.8,1.8c-0.4,0.6-0.8,1-1.3,1.4c-0.5,0.4-1.1,0.7-1.7,0.9
			C76.1,18.4,75.5,18.5,74.8,18.5z"/>
	</g>
	<g>
		<path fill="#F36D33" d="M85,1.7c0-0.3,0.1-0.5,0.2-0.8c0.1-0.2,0.3-0.4,0.6-0.6c0.2-0.1,0.5-0.2,0.8-0.2c0.3,0,0.5,0.1,0.8,0.2
			c0.2,0.1,0.4,0.3,0.6,0.6c0.1,0.2,0.2,0.5,0.2,0.8c0,0.3-0.1,0.5-0.2,0.8c-0.1,0.2-0.3,0.4-0.6,0.6c-0.2,0.1-0.5,0.2-0.8,0.2
			c-0.3,0-0.6-0.1-0.8-0.2c-0.2-0.1-0.4-0.3-0.6-0.6C85.1,2.2,85,2,85,1.7z M85.2,1.7c0,0.2,0.1,0.5,0.2,0.7
			c0.1,0.2,0.3,0.4,0.5,0.5C86.1,3,86.3,3,86.6,3c0.2,0,0.5-0.1,0.7-0.2s0.4-0.3,0.5-0.5C87.9,2.2,88,1.9,88,1.7
			c0-0.2-0.1-0.5-0.2-0.7c-0.1-0.2-0.3-0.4-0.5-0.5c-0.2-0.1-0.4-0.2-0.7-0.2c-0.2,0-0.5,0.1-0.7,0.2S85.5,0.8,85.4,1
			S85.2,1.4,85.2,1.7z M87.2,1.3c0,0.1,0,0.2-0.1,0.3c-0.1,0.1-0.1,0.2-0.3,0.2l0.5,0.8H87l-0.4-0.7h-0.3v0.7H86V0.7h0.6
			c0.2,0,0.4,0,0.5,0.1C87.2,1,87.2,1.1,87.2,1.3z M86.3,1.6h0.2c0.1,0,0.2,0,0.3-0.1c0.1-0.1,0.1-0.1,0.1-0.2c0-0.1,0-0.2-0.1-0.2
			C86.8,1,86.7,1,86.5,1h-0.2V1.6z"/>
	</g>
</g>
</svg>
